<?xml version="1.0" encoding="utf-8"?>
<!-- Generator: Adobe Illustrator 25.0.0, SVG Export Plug-In . SVG Version: 6.00 Build 0)  -->
<svg version="1.1"
	 id="svg3476" inkscape:version="0.91 r13725" xmlns:cc="http://creativecommons.org/ns#" xmlns:dc="http://purl.org/dc/elements/1.1/" xmlns:inkscape="http://www.inkscape.org/namespaces/inkscape" xmlns:rdf="http://www.w3.org/1999/02/22-rdf-syntax-ns#" xmlns:sodipodi="http://sodipodi.sourceforge.net/DTD/sodipodi-0.dtd" xmlns:svg="http://www.w3.org/2000/svg"
	 xmlns="http://www.w3.org/2000/svg" xmlns:xlink="http://www.w3.org/1999/xlink" x="0px" y="0px" viewBox="0 0 290.2 409.6"
	 style="enable-background:new 0 0 290.2 409.6;" xml:space="preserve">
<style type="text/css">
	.st0{fill:#264DE4;}
	.st1{fill:#2965F1;}
	.st2{fill:#EBEBEB;}
	.st3{fill:#FFFFFF;}
</style>
<sodipodi:namedview  bordercolor="#666666" borderopacity="1.0" fit-margin-bottom="0" fit-margin-left="0" fit-margin-right="0" fit-margin-top="0" id="base" inkscape:current-layer="layer1" inkscape:cx="181.367" inkscape:cy="256" inkscape:document-units="px" inkscape:pageopacity="0.0" inkscape:pageshadow="2" inkscape:window-height="704" inkscape:window-maximized="1" inkscape:window-width="1366" inkscape:window-x="0" inkscape:window-y="27" inkscape:zoom="0.35" pagecolor="#ffffff" showgrid="false">
	</sodipodi:namedview>
<polygon id="polygon2989" class="st0" points="290.2,80.5 263.8,376.7 144.9,409.6 26.4,376.7 0,80.5 "/>
<polygon id="polygon2991" class="st1" points="241.1,357.8 263.7,104.7 145.1,104.7 145.1,384.4 "/>
<polygon id="polygon2993" class="st2" points="60.5,214.6 63.8,250.9 145.1,250.9 145.1,214.6 "/>
<polygon id="polygon2995" class="st2" points="145.1,141 145,141 54,141 57.3,177.4 145.1,177.4 "/>
<polygon id="polygon2997" class="st2" points="145.1,346.7 145.1,308.9 144.9,309 104.5,298 101.9,269.1 82.2,269.1 65.4,269.1 
	70.5,326.1 144.9,346.8 "/>
<path id="path2999" inkscape:connector-curvature="0" class="st3" d="M68.3,0h44v18.4H86.7v18.4h25.6v18.4h-44V0z"/>
<path id="path3001" inkscape:connector-curvature="0" class="st3" d="M121.1,0h44v16h-25.6v3.2h25.6V56h-44V39.2h25.6V36h-25.6V0z"
	/>
<path id="path3003" inkscape:connector-curvature="0" class="st3" d="M173.9,0h44v16h-25.6v3.2h25.6V56h-44V39.2h25.6V36h-25.6V0z"
	/>
<polygon id="polygon3005" class="st3" points="189.7,250.9 185.5,298 145,309 145,346.7 219.4,326.1 220,320 228.5,224.3 
	229.4,214.6 236,141 145,141 145,177.4 196.2,177.4 192.9,214.6 145,214.6 145,250.9 "/>
</svg>
