<svg xmlns="http://www.w3.org/2000/svg" viewBox="0 0 999.6 600"><defs><style>.cls-1{fill:#012169;}.cls-2{fill:#fff;}.cls-3{fill:#c8102e;}</style></defs><g id="Layer_2" data-name="Layer 2"><g id="Layer_1-2" data-name="Layer 1"><rect class="cls-1" width="999.6" height="600"/><polygon class="cls-2" points="999.6 0 999.6 117.18 633.96 300 999.6 482.82 999.6 600 965.63 600 599.8 417.08 499.8 367.08 399.8 417.08 33.97 600 0 600 0 482.82 365.64 300 0 117.18 0 0 33.97 0 399.8 182.92 499.8 232.92 599.8 182.92 965.63 0 999.6 0"/><polygon class="cls-3" points="589.24 300 999.6 505.18 999.6 594.62 610.36 400 559.8 374.72 499.8 344.72 439.8 374.72 389.24 400 0 594.62 0 505.18 410.36 300 0 94.82 0 5.38 389.24 200 439.8 225.28 499.8 255.28 559.8 225.28 610.36 200 999.6 5.38 999.6 94.82 589.24 300"/><polygon class="cls-2" points="999.6 200 999.6 400 599.8 400 599.8 600 399.8 600 399.8 400 0 400 0 200 399.8 200 399.8 0 599.8 0 599.8 200 999.6 200"/><polygon class="cls-3" points="999.6 240 999.6 360 559.8 360 559.8 600 439.8 600 439.8 360 0 360 0 240 439.8 240 439.8 0 559.8 0 559.8 240 999.6 240"/></g></g></svg>