<svg width="240" height="80" viewBox="0 0 240 80" fill="none" xmlns="http://www.w3.org/2000/svg">
<path d="M37.1105 42.8416L41.568 46.248L36.9745 54.568C36.8018 54.8934 36.5662 55.1811 36.2812 55.4144C35.9962 55.6477 35.6676 55.8219 35.3146 55.9269C34.9616 56.0319 34.5912 56.0656 34.225 56.026C33.8588 55.9863 33.5042 55.8741 33.1819 55.696C32.8595 55.5179 32.5758 55.2774 32.3474 54.9885C32.119 54.6996 31.9503 54.3681 31.8513 54.0133C31.7524 53.6586 31.725 53.2876 31.7709 52.9222C31.8167 52.5568 31.9349 52.2041 32.1185 51.8848L37.1105 42.8496V42.8416Z" fill="#EE1848"/>
<path d="M59.5615 45.0144C58.5521 46.8537 57.0131 48.3472 55.1444 49.301C53.2756 50.2548 51.1633 50.6249 49.0815 50.3632C48.0939 50.238 47.13 49.9685 46.2207 49.5632C45.9583 49.4448 45.6975 49.3152 45.4415 49.1728C45.3759 49.1376 45.3087 49.1008 45.2447 49.0608L47.2895 45.352C47.3551 45.392 47.4207 45.4304 47.4879 45.4672C47.5551 45.504 47.6031 45.5296 47.6591 45.5584C48.2738 45.8745 48.9385 46.0818 49.6239 46.1712C50.8389 46.3257 52.0724 46.114 53.1663 45.5632C54.3053 44.9937 55.2432 44.09 55.8543 42.9728C57.5167 39.9664 56.4655 36.1936 53.5135 34.5616C52.8523 34.195 52.1274 33.9572 51.3775 33.8608C50.2841 33.7169 49.1721 33.8723 48.1599 34.3104L44.4303 41.0592L43.6415 42.4864L43.6127 42.5392L39.1599 39.1376L39.1887 39.0848L41.4399 35.0032C42.356 33.3346 43.7095 31.9473 45.3551 30.9905C47.0006 30.0337 48.8759 29.5435 50.7791 29.5728C51.1601 29.5784 51.5404 29.6057 51.9183 29.6544C53.196 29.8205 54.4309 30.226 55.5583 30.8496C60.5647 33.6144 62.3567 39.9568 59.5615 45.0144Z" fill="#EE1848"/>
<path d="M41.8896 27.1296C41.8466 27.4755 41.738 27.81 41.5696 28.1152L36.6097 37.1056L36.5809 37.1584L32.1121 33.76L32.1409 33.7104L36.7089 25.44C37.0209 24.8741 37.5206 24.4348 38.1219 24.1981C38.7232 23.9613 39.3883 23.9418 40.0023 24.1431C40.6164 24.3443 41.141 24.7536 41.4856 25.3003C41.8301 25.847 41.9731 26.4968 41.8896 27.1376V27.1296Z" fill="#EE1848"/>
<path d="M34.5215 40.864L32.2511 44.9712V44.9872C32.2464 44.9961 32.241 45.0046 32.2351 45.0128C31.2259 46.8503 29.6871 48.3415 27.8189 49.2926C25.9507 50.2437 23.8395 50.6106 21.7599 50.3456C20.4815 50.1795 19.246 49.7734 18.1183 49.1488C13.1167 46.384 11.3247 40.0432 14.1183 34.984C15.1279 33.1448 16.6669 31.6515 18.5356 30.6977C20.4044 29.7439 22.5166 29.3738 24.5983 29.6352C25.1793 29.7097 25.7527 29.835 26.3119 30.0096C26.9806 30.2174 27.6266 30.4924 28.2399 30.8304L28.4335 30.9424L26.3903 34.6544L26.3135 34.6064C26.2735 34.5824 26.2303 34.56 26.1919 34.536C25.5302 34.1701 24.8056 33.9318 24.0559 33.8336C22.8419 33.6783 21.6093 33.8901 20.5167 34.4416C19.2097 35.0987 18.1716 36.1894 17.5797 37.5272C16.9879 38.865 16.8791 40.3669 17.2719 41.776C17.5897 42.9176 18.2362 43.9405 19.1309 44.7174C20.0256 45.4943 21.1291 45.991 22.3039 46.1456C23.3976 46.2862 24.5089 46.1281 25.5199 45.688L29.2479 38.9408L30.0607 37.4688V37.4592L34.5215 40.864Z" fill="#EE1848"/>
<path d="M73.7727 33.3504H78.4527C82.1727 33.3504 85.1727 35.9104 85.1727 40.3296C85.1727 44.7488 82.1727 47.3504 78.4527 47.3504H73.7727V33.3504ZM78.4319 46.6704C81.8719 46.6704 84.4927 44.3104 84.4927 40.3296C84.4927 36.3488 81.8719 34.0096 78.4319 34.0096L74.4527 34.0304V46.6704H78.4319Z" fill="#FBFBFB"/>
<path d="M87.2319 42.4096C87.2319 39.5296 89.4927 37.2304 92.3327 37.2304C95.2127 37.2304 97.4527 39.5296 97.4527 42.4096C97.4527 43.765 96.9143 45.0648 95.9559 46.0232C94.9975 46.9816 93.6977 47.52 92.3423 47.52C90.987 47.52 89.6871 46.9816 88.7287 46.0232C87.7703 45.0648 87.2319 43.765 87.2319 42.4096ZM96.7727 42.4096C96.7727 39.8896 94.8527 37.8704 92.3327 37.8704C89.8127 37.8704 87.9119 39.8896 87.9119 42.4096C87.9119 44.9296 89.8319 46.9296 92.3327 46.9296C94.8335 46.9296 96.7727 44.9104 96.7727 42.4096Z" fill="#FBFBFB"/>
<path d="M100.032 37.4496H100.691V39.8496C101.371 38.1696 102.691 37.3504 104.432 37.3504C106.011 37.3504 107.552 38.1696 108.112 40.3504C108.672 38.3504 110.131 37.3504 112.051 37.3504C114.072 37.3504 116.032 38.6304 116.032 42.2896V47.3504H115.371V42.3296C115.371 38.9504 113.571 37.9296 111.971 37.9296C109.952 37.9296 108.371 39.3104 108.371 42.3296V47.3504H107.712V42.3296C107.712 38.9504 105.912 37.9296 104.312 37.9296C102.312 37.9296 100.691 39.3104 100.691 42.3696V47.3504H100.032V37.4496Z" fill="#FBFBFB"/>
<path d="M118.752 34.5904C118.752 34.4605 118.804 34.336 118.895 34.2442C118.987 34.1524 119.112 34.1008 119.242 34.1008C119.371 34.1008 119.496 34.1524 119.588 34.2442C119.68 34.336 119.731 34.4605 119.731 34.5904C119.731 34.7202 119.68 34.8448 119.588 34.9366C119.496 35.0284 119.371 35.08 119.242 35.08C119.112 35.08 118.987 35.0284 118.895 34.9366C118.804 34.8448 118.752 34.7202 118.752 34.5904ZM118.912 37.4496H119.571V47.3504H118.912V37.4496Z" fill="#FBFBFB"/>
<path d="M122.672 37.4496H123.331V39.8704C123.952 38.2704 125.312 37.3504 127.131 37.3504C129.291 37.3504 131.192 38.8096 131.192 42.2896V47.3504H130.531V42.3296C130.531 39.1104 128.792 37.9504 127.072 37.9504C124.851 37.9504 123.331 39.4896 123.331 42.3504V47.3504H122.672V37.4496Z" fill="#FBFBFB"/>
<path d="M133.931 34.5904C133.938 34.4652 133.993 34.3474 134.084 34.2613C134.176 34.1752 134.296 34.1272 134.422 34.1272C134.547 34.1272 134.668 34.1752 134.759 34.2613C134.85 34.3474 134.905 34.4652 134.912 34.5904C134.916 34.6571 134.906 34.724 134.883 34.7868C134.86 34.8496 134.825 34.9071 134.779 34.9557C134.733 35.0043 134.677 35.043 134.616 35.0695C134.555 35.0959 134.489 35.1096 134.422 35.1096C134.355 35.1096 134.289 35.0959 134.227 35.0695C134.166 35.043 134.11 35.0043 134.065 34.9557C134.019 34.9071 133.983 34.8496 133.96 34.7868C133.937 34.724 133.927 34.6571 133.931 34.5904ZM134.091 37.4496H134.752V47.3504H134.091V37.4496Z" fill="#FBFBFB"/>
<path d="M137.232 42.4096C137.232 39.5296 139.512 37.2304 142.272 37.2304C143.095 37.2291 143.905 37.431 144.63 37.8181C145.356 38.2053 145.975 38.7657 146.432 39.4496L145.891 39.8496C145.505 39.2406 144.97 38.7396 144.337 38.3934C143.704 38.0473 142.993 37.8674 142.272 37.8704C139.832 37.8704 137.891 39.8896 137.891 42.4096C137.891 44.9296 139.84 46.9296 142.272 46.9296C142.997 46.9364 143.713 46.7605 144.352 46.4179C144.992 46.0754 145.535 45.5773 145.931 44.9696L146.472 45.3696C146.003 46.0491 145.375 46.6044 144.643 46.9876C143.912 47.3709 143.098 47.5706 142.272 47.5696C139.52 47.5696 137.232 45.2496 137.232 42.4096Z" fill="#FBFBFB"/>
<path d="M153.712 33.3504H158.571C161.011 33.3504 162.931 34.9104 162.931 37.5904C162.931 40.2704 161.011 41.8304 158.571 41.8304H154.4V47.3504H153.712V33.3504ZM158.56 41.2096C160.76 41.2096 162.28 39.8096 162.28 37.5904C162.28 35.3712 160.76 33.9696 158.56 33.9696H154.4V41.2096H158.56Z" fill="#FBFBFB"/>
<path d="M174.291 42.0304V42.5104H164.771C164.832 45.0304 166.752 46.9696 169.232 46.9696C170.851 46.9696 172.192 46.3296 172.992 45.2304L173.451 45.5904C172.531 46.8496 171.011 47.5504 169.211 47.5504C168.539 47.5494 167.874 47.4153 167.254 47.1558C166.634 46.8963 166.072 46.5167 165.6 46.0387C165.127 45.5607 164.754 44.994 164.502 44.3711C164.25 43.7482 164.124 43.0815 164.131 42.4096C164.131 39.5104 166.312 37.2304 169.211 37.2304C172.032 37.2304 174.171 39.2496 174.291 42.0304ZM164.792 41.9104H173.672C173.491 39.5904 171.691 37.8304 169.211 37.8304C166.811 37.8304 165.032 39.5904 164.8 41.9104H164.792Z" fill="#FBFBFB"/>
<path d="M176.672 37.4496H177.331V39.7296C177.668 39.0005 178.211 38.3863 178.894 37.9633C179.576 37.5404 180.368 37.3272 181.171 37.3504V38.0304C181 37.9972 180.825 37.9837 180.651 37.9904C178.792 38.1104 177.331 39.6896 177.331 41.6496V47.3504H176.672V37.4496Z" fill="#FBFBFB"/>
<path d="M182.632 44.9504L183.211 44.7504C183.912 46.5504 185.432 47.0896 186.912 47.0896C188.971 47.0896 190.211 46.0704 190.211 44.5696C190.211 42.2704 186.792 43.0496 184.691 42.2896C183.851 41.9696 183.091 41.3904 183.091 40.0704C183.091 38.6304 184.512 37.2304 186.691 37.2304C188.832 37.2304 190.032 38.4704 190.411 39.8304L189.832 40.0096C189.472 38.8704 188.592 37.7904 186.691 37.7904C184.872 37.7904 183.712 38.9296 183.712 40.0704C183.712 42.7104 187.712 41.7504 189.632 42.6704C190.392 43.0304 190.851 43.6496 190.851 44.5696C190.851 46.3504 189.392 47.6496 186.912 47.6496C185.211 47.6496 183.371 46.9904 182.632 44.9504Z" fill="#FBFBFB"/>
<path d="M192.691 42.4096C192.691 39.5696 194.851 37.3504 197.611 37.3504C199.712 37.3504 201.371 38.5296 202.091 40.2304V37.4496H202.752V47.3504H202.091V44.5696C201.371 46.2496 199.712 47.4496 197.611 47.4496C194.851 47.4496 192.691 45.2096 192.691 42.4096ZM202.091 42.4096C202.091 39.9504 200.171 37.9504 197.712 37.9504C195.253 37.9504 193.352 39.9504 193.352 42.4096C193.352 44.8688 195.251 46.8496 197.712 46.8496C198.292 46.8497 198.867 46.7344 199.402 46.5105C199.937 46.2867 200.423 45.9587 200.83 45.5455C201.238 45.1324 201.559 44.6425 201.775 44.1041C201.992 43.5658 202.099 42.9898 202.091 42.4096Z" fill="#FBFBFB"/>
<path d="M205.731 42.5104V37.4496H206.4V42.4704C206.4 45.6896 208.139 46.8496 209.859 46.8496C212.08 46.8496 213.6 45.3104 213.6 42.4496V37.4496H214.259V47.3504H213.6V45.0096H213.56C212.939 46.5296 211.579 47.4496 209.8 47.4496C207.632 47.4496 205.731 45.9904 205.731 42.5104Z" fill="#FBFBFB"/>
<path d="M216.811 42.4096C216.811 39.5696 218.971 37.3504 221.752 37.3504C223.832 37.3504 225.491 38.5296 226.211 40.2304V32.3504H226.88V47.3504H226.219V44.5696C225.845 45.4374 225.221 46.1745 224.427 46.6873C223.633 47.2 222.705 47.4654 221.76 47.4496C218.971 47.4496 216.811 45.2096 216.811 42.4096ZM226.211 42.4096C226.211 39.9504 224.312 37.9504 221.851 37.9504C219.39 37.9504 217.491 39.9504 217.491 42.4096C217.491 44.8688 219.371 46.8496 221.851 46.8496C224.331 46.8496 226.211 44.8704 226.211 42.4096Z" fill="#FBFBFB"/>
</svg>
