<svg width="165" height="165" viewBox="0 0 165 165" fill="none" xmlns="http://www.w3.org/2000/svg">
<path d="M83.1876 89.7231L94.5191 98.3887L94.5084 98.407L82.8331 119.53C82.3926 120.354 81.7928 121.082 81.0685 121.672C80.3442 122.262 79.5098 122.703 78.6139 122.968C77.718 123.233 76.7784 123.317 75.8496 123.216C74.9208 123.114 74.0214 122.83 73.2037 122.378C72.3859 121.926 71.6661 121.316 71.0859 120.584C70.5058 119.851 70.077 119.011 69.8244 118.112C69.5718 117.212 69.5005 116.272 69.6145 115.344C69.7285 114.417 70.0257 113.522 70.4887 112.71L83.1692 89.7445L83.1876 89.7231Z" fill="#EE1848"/>
<path d="M140.259 95.2462C134.806 105.117 124.065 110.195 113.618 108.843C111.106 108.518 108.656 107.827 106.346 106.792C105.678 106.486 105.016 106.156 104.359 105.802C104.191 105.708 104.023 105.615 103.86 105.516L109.054 96.088C109.221 96.1873 109.387 96.2881 109.558 96.3813C109.702 96.4592 109.849 96.5341 109.994 96.6135C111.557 97.4154 113.247 97.9415 114.99 98.1688C118.077 98.564 121.213 98.0255 123.991 96.6227C126.887 95.1756 129.271 92.8794 130.827 90.041C135.052 82.4021 132.382 72.8062 124.868 68.6521C123.186 67.7213 121.344 67.1159 119.437 66.8677C116.659 66.512 113.836 66.9127 111.267 68.0273L101.794 85.1842L99.7868 88.8127L99.773 88.8035L99.6997 88.9364L88.3911 80.2999L88.4644 80.167L94.1951 69.7965C96.5252 65.5541 99.9675 62.0271 104.152 59.5948C108.337 57.1624 113.105 55.9167 117.944 55.9915C122.199 56.063 126.372 57.1784 130.095 59.2395C142.807 66.2688 147.362 82.3884 140.259 95.2462Z" fill="#EE1848"/>
<path d="M95.333 49.7839C95.2188 50.6639 94.9383 51.5142 94.5065 52.2894L81.8885 75.1435L81.8152 75.2764L70.4836 66.6185L70.557 66.4886L82.1681 45.4694C82.9637 44.0357 84.234 42.924 85.7605 42.3253C87.287 41.7267 88.9744 41.6785 90.5326 42.1892C92.0907 42.6998 93.4223 43.7373 94.2984 45.1234C95.1744 46.5094 95.5403 48.1573 95.333 49.7839Z" fill="#EE1848"/>
<path d="M76.606 84.6957L76.5953 84.7171L70.8218 95.1564L70.805 95.1992C70.7912 95.219 70.7805 95.245 70.7668 95.2649C68.4328 99.4897 64.9944 103.001 60.8193 105.423C56.6443 107.845 51.8895 109.086 47.0633 109.015C42.8069 108.944 38.6331 107.828 34.9099 105.764C22.1926 98.736 17.646 82.6179 24.7425 69.7571C27.3089 65.0827 31.2205 61.2871 35.9701 58.8626C40.7197 56.4381 46.0881 55.4965 51.3793 56.1599C52.8561 56.3507 54.3135 56.6697 55.735 57.1132C57.4356 57.6419 59.0782 58.3417 60.6376 59.2017C60.8041 59.2949 60.9692 59.3865 61.1311 59.4874L55.9367 68.9199C55.871 68.8786 55.8098 68.8404 55.7426 68.8022C55.6418 68.7396 55.5348 68.6815 55.4371 68.6235C53.7567 67.6917 51.9156 67.0853 50.0104 66.836C46.9238 66.4428 43.7901 66.9812 41.0118 68.3821C37.691 70.0529 35.0531 72.8245 33.5484 76.2239C32.0438 79.6232 31.7658 83.4394 32.7618 87.021C33.571 89.9222 35.2149 92.5216 37.4892 94.4963C39.7634 96.471 42.5678 97.7338 45.5539 98.1279C48.3334 98.4842 51.1576 98.0825 53.7275 96.9653L63.1997 79.8114L65.2653 76.0714L65.2805 76.0806L65.2943 76.0561L76.606 84.6957Z" fill="#EE1848"/>
</svg>
